<svg width="48" height="48" viewBox="0 0 48 48" fill="none" xmlns="http://www.w3.org/2000/svg">
<path d="M44.5714 18.8571H29.1429V3.42857C29.1429 1.53536 27.6075 0 25.7143 0L22.2857 0C20.3925 0 18.8571 1.53536 18.8571 3.42857V18.8571H3.42857C1.53536 18.8571 0 20.3925 0 22.2857L0 25.7143C0 27.6075 1.53536 29.1429 3.42857 29.1429H18.8571V44.5714C18.8571 46.4646 20.3925 48 22.2857 48H25.7143C27.6075 48 29.1429 46.4646 29.1429 44.5714V29.1429H44.5714C46.4646 29.1429 48 27.6075 48 25.7143V22.2857C48 20.3925 46.4646 18.8571 44.5714 18.8571Z" fill="#767676"/>
</svg>
