<?xml version="1.0" standalone="no"?>
<!DOCTYPE svg PUBLIC "-//W3C//DTD SVG 20010904//EN"
 "http://www.w3.org/TR/2001/REC-SVG-20010904/DTD/svg10.dtd">
<svg version="1.0" xmlns="http://www.w3.org/2000/svg"
 width="1513.000000pt" height="1513.000000pt" viewBox="0 0 1513.000000 1513.000000"
 preserveAspectRatio="xMidYMid meet">
<metadata>
Created by potrace 1.11, written by Peter Selinger 2001-2013
</metadata>
<g transform="translate(0.000000,1513.000000) scale(0.100000,-0.100000)"
fill="#000000" stroke="none">
<path d="M10198 8635 c-2 -2 -30 -6 -63 -9 -33 -3 -78 -8 -100 -11 -41 -5 -60
-8 -181 -25 -40 -5 -96 -12 -125 -15 -30 -4 -67 -8 -84 -10 -20 -3 -41 4 -65
20 -62 43 -127 35 -152 -18 -13 -28 -21 -33 -49 -33 -41 -1 -198 -14 -219 -19
-8 -2 -51 -7 -95 -10 -44 -3 -102 -8 -130 -11 -27 -3 -123 -7 -213 -8 -89 -2
-164 -5 -166 -7 -14 -16 -46 -107 -46 -131 0 -17 14 -70 30 -120 17 -49 30
-98 30 -108 0 -11 10 -25 23 -31 12 -7 33 -24 47 -40 14 -15 41 -32 60 -37 55
-13 389 0 540 23 24 4 40 2 40 -4 0 -6 -13 -39 -29 -74 -16 -35 -35 -83 -41
-107 -6 -23 -22 -52 -36 -65 -13 -12 -32 -47 -40 -76 -9 -30 -45 -130 -81
-224 -102 -267 -120 -334 -129 -479 -5 -84 -3 -100 29 -208 19 -64 41 -126 50
-138 8 -12 13 -29 10 -38 -3 -13 10 -25 49 -45 95 -51 119 -65 139 -83 15 -14
30 -16 79 -11 95 10 140 41 165 113 14 43 9 102 -11 125 -8 9 -29 24 -48 34
-29 16 -74 78 -69 96 1 3 11 48 22 100 22 103 52 192 74 218 8 9 26 54 40 101
15 47 38 102 52 122 13 20 32 58 41 85 9 26 30 72 47 102 17 30 42 89 57 130
15 42 50 132 79 201 99 233 84 210 133 211 24 1 48 2 53 3 6 1 42 6 80 11 39
5 72 9 75 10 3 1 34 5 70 9 36 5 74 10 85 13 11 2 85 6 165 9 89 3 159 11 180
19 19 8 52 16 73 18 27 4 47 15 72 42 30 31 35 43 35 85 0 73 -12 94 -112 193
-66 64 -102 92 -127 98 -33 8 -305 11 -313 4z"/>
<path d="M341 8336 c2 -2 45 -7 94 -11 50 -4 92 -9 95 -10 3 -2 43 -6 89 -10
47 -4 92 -8 100 -10 9 -1 52 -6 96 -10 44 -4 88 -9 97 -11 9 -1 48 -5 85 -9
37 -3 79 -8 93 -10 14 -2 54 -7 90 -10 36 -4 76 -8 90 -10 14 -2 59 -6 100
-10 41 -3 91 -8 111 -11 24 -3 36 0 36 8 1 7 4 37 8 66 l7 52 -598 0 c-328 0
-595 -2 -593 -4z"/>
<path d="M1617 8303 c-3 -21 -13 -77 -21 -126 -24 -136 -45 -249 -51 -282 -3
-16 -7 -43 -10 -60 -3 -16 -7 -41 -10 -55 -3 -13 -7 -42 -11 -65 -3 -22 -10
-62 -15 -90 -6 -27 -12 -59 -13 -70 -4 -23 -19 -118 -21 -125 -1 -3 -5 -25 -9
-50 -5 -25 -10 -54 -12 -65 -3 -11 -7 -36 -9 -55 -3 -19 -8 -46 -11 -60 -3
-14 -7 -34 -9 -45 -2 -11 -13 -76 -25 -145 -12 -69 -23 -136 -25 -150 -2 -14
-6 -36 -9 -50 -7 -28 -22 -116 -31 -170 -3 -19 -8 -50 -11 -67 l-6 -33 271 0
c208 0 273 3 276 13 7 17 13 58 14 86 1 23 2 24 79 17 42 -3 88 -8 102 -10 14
-2 54 -7 90 -10 66 -7 117 -12 193 -21 23 -2 71 -7 107 -10 36 -4 76 -8 90
-11 14 -2 54 -6 90 -10 36 -3 76 -7 90 -9 14 -2 57 -7 95 -10 39 -3 82 -8 96
-10 27 -5 27 -5 76 113 4 9 -109 12 -546 12 l-551 0 5 38 c3 20 10 60 15 87
16 80 18 99 19 123 1 22 3 22 74 17 39 -3 82 -8 95 -11 12 -2 48 -7 80 -9 31
-3 95 -10 142 -15 47 -6 105 -12 130 -14 25 -3 65 -7 90 -10 25 -3 72 -8 105
-11 33 -4 74 -8 90 -10 17 -2 57 -7 90 -10 107 -11 144 -15 189 -20 41 -5 45
-3 54 22 6 16 17 45 26 65 l16 37 -581 0 c-320 0 -583 2 -586 4 -4 5 15 129
33 220 l6 28 171 -5 c95 -3 186 -8 202 -10 17 -3 64 -8 105 -11 41 -3 82 -8
90 -10 8 -3 42 -7 75 -10 66 -6 151 -14 205 -21 19 -2 62 -6 95 -10 33 -3 71
-7 84 -9 13 -3 56 -7 95 -10 l71 -6 23 57 c14 34 19 60 14 63 -6 3 -179 6
-386 6 l-376 -1 5 25 c2 13 9 47 14 75 6 28 13 65 17 81 3 17 6 36 6 43 1 10
14 12 52 7 105 -13 122 -15 171 -20 28 -2 70 -7 95 -10 25 -3 68 -7 95 -10 28
-3 70 -8 95 -10 100 -11 137 -15 183 -21 27 -3 62 -7 77 -8 30 -2 30 -2 77
112 4 9 -83 12 -417 12 -370 0 -421 2 -416 15 3 8 8 37 12 64 l6 49 -196 1
c-108 0 -212 0 -231 1 l-36 0 6 43 c3 23 8 49 10 57 2 8 7 35 11 60 3 25 7 52
9 60 2 13 39 15 257 18 l255 2 23 76 24 75 55 -6 c31 -4 72 -8 91 -10 19 -1
62 -5 95 -9 107 -12 139 -15 200 -21 33 -4 76 -8 95 -10 19 -3 82 -9 140 -15
58 -6 124 -13 148 -16 l43 -5 25 56 c13 31 22 59 20 63 -2 4 -205 7 -450 6
l-445 0 6 25 c3 14 23 77 44 139 l38 112 -563 0 -563 0 -6 -37z"/>
<path d="M11244 8283 c-16 -15 -36 -39 -44 -51 -12 -18 -25 -24 -51 -24 -43 0
-47 -2 -83 -50 -16 -21 -43 -47 -62 -59 -19 -11 -34 -26 -35 -32 0 -12 -110
-97 -125 -97 -9 0 -33 -22 -135 -124 -36 -36 -73 -66 -82 -66 -10 0 -17 -4
-17 -8 0 -5 -13 -21 -28 -38 -59 -61 -187 -222 -229 -286 -104 -160 -154 -324
-149 -488 3 -85 8 -114 26 -150 99 -196 254 -301 448 -301 42 0 120 -2 172 -4
69 -2 116 2 172 16 43 10 99 21 126 23 72 7 96 14 209 62 57 24 111 44 122 44
25 0 80 23 111 47 14 11 52 36 85 56 66 40 145 116 167 162 46 93 51 205 13
299 -14 36 -32 91 -38 123 -7 32 -26 83 -43 113 -17 30 -46 87 -63 125 -18 39
-42 90 -54 115 -11 25 -34 68 -51 95 -16 28 -28 62 -28 77 2 17 -4 31 -15 37
-17 9 -17 10 0 28 9 11 23 37 30 58 12 36 12 44 -7 87 -13 29 -27 48 -38 48
-9 0 -19 8 -23 18 -3 9 -20 28 -39 42 -18 13 -42 40 -52 60 -19 35 -49 51
-126 65 -29 6 -39 2 -64 -22z m131 -775 c35 -70 73 -141 85 -158 20 -28 27
-48 47 -126 3 -14 -7 -38 -28 -70 -29 -44 -47 -56 -159 -112 -115 -58 -251
-107 -264 -95 -2 3 -28 0 -56 -6 -143 -31 -308 -31 -375 -2 -39 17 -45 24 -45
49 0 42 25 108 67 177 20 33 40 62 43 65 13 9 80 119 80 130 0 5 6 10 13 10 7
0 47 33 88 73 41 39 83 79 95 87 11 8 48 37 83 64 56 44 65 47 87 37 37 -17
71 -13 87 9 8 11 16 17 20 14 3 -3 14 -1 24 5 24 14 31 4 108 -151z"/>
<path d="M14488 8283 c-15 -15 -36 -38 -45 -51 -13 -16 -29 -23 -56 -24 -32
-1 -44 -8 -79 -50 -22 -27 -54 -56 -70 -64 -16 -8 -26 -19 -24 -23 5 -8 -93
-87 -122 -98 -18 -7 -78 -62 -150 -135 -31 -32 -62 -58 -68 -58 -7 0 -29 -21
-50 -46 -54 -65 -94 -112 -127 -148 -88 -100 -178 -258 -216 -381 -30 -96 -36
-135 -34 -246 1 -89 4 -102 37 -167 43 -85 136 -188 204 -225 69 -37 154 -57
252 -59 233 -3 288 0 340 15 30 8 80 18 110 20 61 5 158 36 229 71 39 20 73
31 126 42 49 9 203 109 273 176 58 56 77 91 97 173 20 85 9 158 -40 270 -7 17
-15 46 -17 65 -3 30 -184 412 -227 479 -8 13 -14 36 -13 51 2 18 -2 30 -13 33
-14 6 -14 8 1 26 10 11 23 37 30 58 13 35 12 42 -8 86 -15 30 -29 47 -40 47
-10 0 -18 5 -18 11 0 6 -20 29 -45 51 -25 22 -45 48 -45 57 0 18 -42 47 -81
55 -13 2 -38 8 -54 11 -25 5 -35 1 -57 -22z m58 -636 c40 -84 157 -304 168
-317 7 -8 19 -39 26 -69 12 -51 11 -57 -11 -98 -20 -36 -39 -52 -109 -90 -47
-26 -98 -54 -115 -63 -46 -25 -164 -59 -230 -66 -33 -3 -62 -8 -66 -9 -12 -8
-159 -19 -225 -18 -50 1 -86 8 -118 23 -43 21 -45 24 -42 58 6 59 35 121 102
218 34 50 69 105 78 123 9 17 21 31 27 31 6 0 31 22 56 50 25 27 95 88 156
136 100 78 112 85 134 75 34 -16 80 -14 87 4 3 8 14 15 25 15 11 0 23 5 26 10
10 16 19 12 31 -13z"/>
<path d="M12180 8265 c0 -3 -9 -40 -20 -81 l-21 -77 21 -63 c24 -72 24 -110
-2 -106 -9 1 -19 -1 -22 -6 -11 -18 -7 -90 8 -157 22 -96 30 -189 30 -329 0
-96 -3 -121 -16 -130 -8 -6 -19 -32 -22 -56 -10 -63 -75 -289 -94 -324 -12
-23 -14 -49 -9 -120 11 -156 47 -242 122 -291 47 -31 66 -29 158 14 35 16 113
48 173 71 354 135 604 276 741 418 57 60 125 161 128 190 2 15 6 47 10 72 9
60 -26 207 -67 280 -81 144 -176 235 -440 416 -75 52 -123 77 -178 94 -41 12
-134 48 -205 80 -182 80 -295 121 -295 105z m298 -454 c20 -10 80 -33 132 -51
52 -18 129 -50 171 -71 41 -21 80 -39 86 -39 6 0 19 -12 28 -27 18 -28 26 -36
107 -108 25 -22 53 -52 63 -68 17 -27 17 -28 -10 -70 -57 -87 -116 -129 -285
-204 -41 -19 -86 -45 -100 -58 -14 -14 -33 -25 -41 -25 -7 0 -41 -12 -74 -26
-33 -14 -73 -29 -88 -34 l-28 -9 6 51 c4 28 9 60 11 72 23 116 23 382 0 506
-22 123 -26 143 -32 152 -5 8 3 28 12 28 3 0 21 -8 42 -19z"/>
<path d="M6087 8094 c-1 -1 -37 -4 -79 -7 -264 -20 -405 -114 -492 -327 -63
-153 -89 -362 -59 -468 35 -121 164 -204 358 -228 22 -3 51 -7 65 -10 14 -2
57 -7 95 -10 39 -3 71 -7 73 -8 1 -2 -1 -24 -4 -49 l-7 -47 -46 -1 c-265 -7
-366 2 -529 45 -52 13 -54 13 -61 -8 -37 -96 -132 -398 -128 -403 8 -7 110
-32 162 -39 22 -3 46 -7 53 -10 60 -19 423 -23 568 -5 162 20 203 35 290 102
40 31 58 39 80 35 16 -3 56 -8 89 -11 33 -3 76 -8 95 -10 33 -4 91 -11 185
-20 22 -2 74 -7 115 -10 41 -4 77 -8 80 -10 3 -2 41 -6 85 -10 44 -3 91 -8
105 -10 60 -10 243 -26 247 -21 3 2 6 15 8 28 2 12 6 40 10 60 l6 38 -516 2
-517 3 23 25 c19 22 84 151 102 203 5 12 14 16 29 13 13 -3 50 -8 83 -11 66
-6 134 -14 180 -20 17 -2 62 -6 100 -10 39 -3 84 -8 101 -10 16 -2 59 -7 95
-10 35 -3 78 -8 94 -10 70 -9 248 -26 250 -23 6 8 23 114 19 120 -3 4 -190 7
-417 7 -227 0 -438 0 -469 1 l-57 0 9 28 c10 38 25 150 23 186 l-1 29 76 -7
c43 -3 88 -8 102 -10 14 -2 54 -7 90 -11 36 -3 106 -10 155 -15 50 -6 115 -13
145 -16 30 -3 71 -7 90 -10 19 -2 62 -6 95 -10 33 -3 86 -9 117 -13 32 -4 62
-5 67 -2 10 7 32 113 25 121 -3 2 -220 4 -483 4 l-479 0 -11 36 c-43 146 -200
245 -436 276 -16 2 -52 6 -80 10 -27 4 -56 7 -64 7 -10 0 -11 10 -7 41 4 22 9
42 12 45 14 15 321 4 429 -15 28 -4 40 -7 86 -20 13 -4 22 11 39 60 13 36 26
64 29 62 3 -2 35 -7 71 -10 36 -4 106 -11 155 -17 96 -10 141 -15 245 -24 36
-4 72 -8 80 -10 8 -2 49 -7 91 -10 l76 -7 7 39 c4 21 9 50 12 64 l5 27 -361 0
c-198 0 -363 1 -365 4 -3 2 11 52 30 109 l35 105 68 -7 c37 -4 96 -10 132 -13
36 -4 103 -11 150 -16 107 -12 168 -19 250 -26 36 -4 69 -7 74 -8 10 -1 38
116 30 123 -3 3 -210 5 -462 6 -251 0 -462 3 -467 7 -12 7 -340 28 -348 22z"/>
<path d="M330 8058 c0 -5 18 -9 40 -9 22 -1 43 -2 48 -3 4 -1 43 -6 87 -10 44
-5 89 -10 100 -11 11 -2 52 -6 90 -10 39 -3 84 -8 100 -10 17 -2 62 -7 100
-11 39 -4 79 -8 90 -9 11 -2 52 -6 90 -9 39 -4 84 -9 100 -11 33 -5 79 -10
195 -21 41 -3 78 -8 82 -10 11 -7 18 11 24 62 3 27 8 52 10 56 3 4 -1 8 -8 9
-65 6 -1148 2 -1148 -3z"/>
<path d="M3626 7985 c-19 -44 -57 -134 -84 -200 -28 -66 -111 -264 -185 -440
-74 -176 -156 -372 -182 -435 -26 -63 -56 -133 -66 -155 -10 -22 -27 -62 -38
-90 -10 -27 -27 -67 -35 -87 l-16 -38 250 0 c230 0 251 1 256 18 9 27 46 124
60 157 7 17 14 37 16 45 4 12 35 14 186 15 l182 0 1 -47 c1 -27 3 -57 4 -68 1
-11 3 -42 4 -70 l1 -50 254 0 253 0 -4 41 -5 41 73 -7 c41 -4 81 -9 89 -10 8
-1 51 -6 95 -9 44 -4 87 -9 95 -11 8 -2 47 -6 85 -10 39 -3 81 -8 95 -10 14
-2 55 -6 92 -9 l67 -6 19 62 18 63 -360 3 c-198 1 -363 6 -367 10 -10 10 -22
235 -12 229 4 -3 46 -8 93 -12 47 -4 93 -9 102 -10 9 -2 48 -6 85 -10 37 -3
85 -8 106 -11 20 -2 54 -6 75 -8 20 -3 64 -8 97 -11 33 -3 78 -8 100 -10 22
-3 61 -7 87 -10 l46 -5 18 53 c9 28 19 58 21 64 4 10 -77 13 -373 13 -209 -1
-400 0 -425 0 -30 0 -46 4 -46 13 0 48 -16 223 -20 231 -5 7 71 4 174 -9 16
-1 60 -6 98 -10 39 -3 81 -8 95 -10 14 -2 54 -6 90 -10 116 -12 144 -15 180
-20 19 -2 65 -7 102 -10 37 -3 75 -7 85 -9 10 -2 56 -7 103 -11 47 -4 90 -10
95 -13 6 -3 2 5 -8 18 -22 32 -44 64 -61 93 l-13 22 -472 0 -471 -1 0 46 c-1
25 -4 80 -7 123 l-5 79 43 -6 c24 -3 71 -8 104 -11 33 -3 74 -8 90 -10 17 -2
62 -7 100 -10 39 -3 77 -8 85 -10 8 -2 53 -7 99 -10 47 -4 93 -9 104 -11 11
-2 48 -6 81 -9 75 -7 139 -14 189 -21 20 -3 37 -2 38 3 1 4 3 34 4 66 l4 57
-473 0 c-371 0 -473 3 -473 13 -1 60 -14 211 -19 218 -12 20 33 21 179 5 84
-10 168 -19 187 -21 59 -6 153 -16 185 -20 17 -3 57 -7 90 -10 64 -6 91 -9
225 -25 133 -16 126 -18 144 44 9 30 16 59 16 64 0 6 -178 10 -510 9 -281 0
-512 2 -514 4 -2 2 -7 51 -11 109 -4 58 -9 114 -10 125 -1 11 -3 25 -4 30 -1
6 -127 10 -356 10 l-355 0 -34 -80z m342 -582 l-3 -218 -100 0 c-83 1 -99 3
-97 15 2 8 37 101 78 206 41 105 74 196 74 202 0 7 11 12 25 12 l25 0 -2 -217z"/>
<path d="M4450 8059 c0 -3 6 -6 13 -6 19 0 159 -14 187 -18 14 -2 54 -7 90
-10 36 -3 81 -8 100 -10 19 -2 53 -6 75 -9 22 -3 69 -8 105 -11 36 -4 81 -8
100 -11 19 -2 60 -6 90 -9 30 -3 71 -8 90 -10 107 -13 156 -18 179 -19 20 -1
40 13 83 59 l56 60 -584 0 c-321 0 -584 -3 -584 -6z"/>
<path d="M7464 8058 c-3 -4 -21 -98 -40 -210 -19 -111 -37 -206 -40 -210 -3
-4 67 -8 155 -8 127 0 161 -3 161 -13 0 -8 -9 -65 -21 -128 -11 -63 -23 -127
-25 -144 -3 -16 -11 -64 -19 -106 -8 -42 -17 -98 -21 -125 -3 -27 -8 -52 -10
-55 -1 -3 -6 -28 -9 -55 -4 -27 -9 -57 -11 -66 -3 -10 -7 -30 -10 -45 -2 -16
-6 -38 -9 -50 -3 -12 -7 -39 -10 -60 -3 -21 -13 -84 -23 -140 l-18 -103 253 0
253 0 5 23 c2 12 18 101 35 197 60 352 71 416 80 465 5 28 12 66 15 85 3 19
17 96 30 171 14 76 25 140 25 143 0 3 69 6 154 6 139 0 155 2 160 18 3 9 12
58 21 107 22 131 25 148 30 165 4 14 14 83 18 124 2 19 -10 20 -561 20 -310 1
-566 -2 -568 -6z"/>
<path d="M252 7785 c3 -3 110 -16 163 -20 17 -2 51 -5 75 -8 25 -4 92 -11 150
-17 58 -6 121 -13 140 -15 19 -2 82 -9 140 -15 58 -6 123 -12 145 -15 22 -2
67 -7 100 -10 33 -3 69 -8 80 -10 11 -2 54 -7 96 -10 l76 -7 7 39 c4 21 9 50
12 64 l5 26 -596 1 c-328 0 -595 -1 -593 -3z"/>
<path d="M2282 7785 c5 -5 66 -13 143 -20 39 -4 81 -8 95 -10 14 -2 52 -7 85
-10 33 -3 74 -8 90 -10 17 -2 62 -6 100 -10 39 -3 81 -8 95 -10 14 -2 57 -7
95 -10 39 -4 82 -8 96 -11 14 -2 52 -6 85 -9 32 -3 73 -7 89 -9 17 -3 55 -7
85 -11 61 -7 52 -15 94 86 l15 36 -585 0 c-322 0 -584 -1 -582 -2z"/>
<path d="M270 7499 c30 -4 82 -11 115 -14 33 -3 76 -8 95 -10 19 -2 64 -7 100
-10 36 -3 76 -8 90 -10 14 -2 54 -7 90 -10 36 -3 83 -8 105 -10 22 -3 60 -7
85 -10 25 -2 68 -7 95 -10 28 -3 70 -7 95 -10 25 -3 85 -9 134 -15 50 -5 91
-8 92 -7 2 1 6 18 9 37 3 19 8 47 11 63 l6 27 -589 -1 c-358 -1 -567 -5 -533
-10z"/>
<path d="M6411 7506 c2 -2 40 -7 83 -11 43 -4 87 -8 98 -10 10 -2 51 -7 91
-10 39 -3 83 -8 97 -10 14 -2 58 -7 98 -10 41 -4 81 -8 90 -9 9 -2 53 -7 97
-11 44 -4 87 -8 95 -10 8 -2 49 -6 90 -10 41 -4 82 -8 90 -10 20 -4 167 -17
204 -19 27 -1 31 3 38 39 4 22 10 50 13 63 l5 22 -596 0 c-329 0 -595 -2 -593
-4z"/>
<path d="M188 7229 c4 -4 39 -10 79 -13 40 -4 87 -9 105 -11 18 -2 101 -11
183 -20 83 -8 166 -17 185 -20 19 -2 67 -7 105 -10 72 -7 90 -9 185 -20 60 -8
87 -10 200 -21 41 -3 78 -8 83 -11 4 -2 7 -1 8 4 0 4 2 17 4 28 2 11 5 38 7
60 l3 39 -577 1 c-317 0 -574 -3 -570 -6z"/>
<path d="M140 6950 c30 -4 80 -10 110 -14 30 -3 98 -10 150 -16 52 -5 120 -13
150 -15 30 -3 75 -8 100 -11 25 -3 59 -7 75 -9 17 -2 59 -6 95 -9 36 -4 75 -8
85 -10 11 -2 56 -7 100 -10 44 -4 91 -9 105 -11 14 -2 55 -6 92 -10 75 -7 72
-9 83 77 l7 47 -604 -1 c-332 0 -578 -4 -548 -8z"/>
<path d="M31 6676 c2 -2 44 -7 94 -11 50 -4 97 -9 105 -10 8 -2 44 -6 80 -10
36 -3 79 -8 95 -10 17 -2 64 -7 105 -11 41 -3 83 -8 93 -10 10 -2 48 -6 85 -9
37 -3 81 -8 97 -10 17 -2 62 -7 100 -10 39 -3 82 -8 97 -11 15 -2 49 -6 75 -9
27 -2 73 -7 104 -10 64 -7 65 -6 75 76 l6 49 -608 0 c-334 0 -605 -2 -603 -4z"/>
</g>
</svg>
