<svg width="388" height="105" viewBox="0 0 388 105" fill="none" xmlns="http://www.w3.org/2000/svg">
<path d="M60.912 64.296H49.248L46.368 81H32.688L40.608 36H68.688L64.872 47.52H52.2L51.192 53.568H62.856L60.912 64.296ZM30.528 80.784L0 77.544H31.104L30.528 80.784ZM32.976 66.888L2.448 63.648H33.552L32.976 66.888ZM34.2 59.976L3.672 56.736H34.776L34.2 59.976ZM35.424 53.064L4.896 49.824H36L35.424 53.064ZM36.648 46.152L6.12 42.912H37.152L36.648 46.152ZM31.752 73.8L1.224 70.56H32.328L31.752 73.8ZM37.8 39.24L7.344 36H38.376L37.8 39.24ZM99.5361 81L99.2481 75.168H90.1761L87.9441 81H75.4881L91.4721 42.912H109.328L112.136 81H99.5361ZM99.2481 64.872V53.928H98.2401L93.9921 64.872H99.2481ZM73.1841 80.712L43.6641 77.544H74.5521L73.1841 80.712ZM76.1361 73.728L46.6161 70.56H77.5041L76.1361 73.728ZM79.0881 66.816L49.5681 63.648H80.3841L79.0881 66.816ZM81.9681 59.904L52.5201 56.736H83.3361L81.9681 59.904ZM84.9201 52.992L55.4721 49.824H86.2161L84.9201 52.992ZM87.8001 46.008L58.4241 42.912H89.0961L87.8001 46.008ZM99.0906 77.544H130.195L129.187 80.784L99.0906 77.544ZM135.667 49.824C135.379 50.592 135.067 51.672 134.731 53.064L104.635 49.824H135.667ZM133.867 59.4V59.976L103.339 56.736H134.011C133.915 57.888 133.867 58.776 133.867 59.4ZM131.491 73.728L101.467 70.56H132.499L131.491 73.728ZM140.635 42.912C139.339 43.872 138.355 44.88 137.683 45.936L109.603 42.912H140.635ZM134.515 63.648C134.947 64.896 135.643 65.976 136.603 66.888L106.147 63.648H134.515ZM163.243 54.216C159.979 53.448 157.195 53.064 154.891 53.064C152.587 53.064 150.883 53.136 149.779 53.28L149.419 55.368L153.019 55.8C160.747 56.808 164.611 60 164.611 65.376C164.611 66 164.467 67.176 164.179 68.904C163.891 70.584 163.411 72.216 162.739 73.8C162.067 75.384 161.203 76.68 160.147 77.688C159.139 78.648 158.131 79.44 157.123 80.064C156.163 80.64 154.915 81.048 153.379 81.288C150.979 81.672 147.763 81.864 143.731 81.864C139.747 81.864 135.715 81.312 131.635 80.208L135.163 69.552C138.907 70.608 142.171 71.136 144.955 71.136C147.787 71.136 149.779 71.064 150.931 70.92L151.291 68.616L146.755 68.112C142.867 67.68 140.107 66.768 138.475 65.376C136.843 63.984 136.027 61.992 136.027 59.4C136.027 58.44 136.147 57.24 136.387 55.8C137.347 50.664 139.075 47.112 141.571 45.144C144.067 43.176 147.859 42.192 152.947 42.192C158.083 42.192 162.667 42.696 166.699 43.704L163.243 54.216ZM213.05 53.712H205.274L200.522 81H187.85L192.602 53.712H184.61L186.554 42.912H214.994L213.05 53.712ZM185.69 80.784L155.162 77.544H186.266L185.69 80.784ZM188.138 66.888L157.61 63.648H188.714L188.138 66.888ZM189.362 59.976L158.834 56.736H189.938L189.362 59.976ZM182.45 53.064L151.922 49.824H183.026L182.45 53.064ZM183.674 46.152L153.146 42.912H184.178L183.674 46.152ZM186.914 73.8L156.386 70.56H187.49L186.914 73.8Z" fill="#FF0000"/>
<path d="M214.547 41.3438C214.5 40.9688 214.406 40.6406 214.266 40.3594C214.172 40.0312 214.055 39.6797 213.914 39.3047C213.68 38.7422 213.469 38.1328 213.281 37.4766C213.094 36.8203 213 36.0469 213 35.1562C213.094 34.6875 213.211 34.3594 213.352 34.1719C213.492 33.9375 213.633 33.75 213.773 33.6094L214.055 32.3438H215.109C215.484 32.3906 215.859 32.4141 216.234 32.4141C216.656 32.4141 217.055 32.4141 217.43 32.4141C219.211 32.4141 221.039 32.3438 222.914 32.2031C224.789 32.0625 226.711 31.8984 228.68 31.7109C230.836 31.4297 233.156 31.2188 235.641 31.0781C235.875 30.5625 236.016 30.2344 236.062 30.0938C236.156 29.9531 236.25 29.7891 236.344 29.6016L237.117 29.1797C238.195 29.1328 238.945 29.2734 239.367 29.6016C239.789 29.8828 240.117 30.1641 240.352 30.4453C241.57 30.3516 242.812 30.2344 244.078 30.0938C245.344 29.9063 246.656 29.7187 248.016 29.5312C249.891 29.2969 251.789 29.0625 253.711 28.8281C255.633 28.5937 257.508 28.4766 259.336 28.4766C260.133 28.4766 260.883 28.5 261.586 28.5469C262.289 28.5937 262.969 28.6641 263.625 28.7578L264.469 29.3906C264.656 29.7187 264.891 30.0234 265.172 30.3047C265.453 30.5859 265.781 30.8672 266.156 31.1484C266.859 31.7109 267.539 32.4141 268.195 33.2578C268.898 34.1016 269.156 35.3438 268.969 36.9844L268.617 37.6875C268.43 37.875 268.195 38.0625 267.914 38.25L267.211 39.1641H266.438C265.969 39.1641 265.617 39.2109 265.383 39.3047C265.148 39.3516 264.867 39.4453 264.539 39.5859C264.352 39.6797 264.141 39.7734 263.906 39.8672C263.672 39.9141 263.414 39.9844 263.133 40.0781C262.617 40.0312 262.219 40.0078 261.938 40.0078C261.656 40.0078 261.328 40.0078 260.953 40.0078C259.547 40.0078 258.023 40.1016 256.383 40.2891C254.742 40.4766 253.148 40.6875 251.602 40.9219C250.477 41.0625 249.398 41.2031 248.367 41.3438C247.336 41.4375 246.398 41.5312 245.555 41.625C245.086 42.8438 244.664 43.9219 244.289 44.8594C243.914 45.7969 243.516 46.7344 243.094 47.6719C242.672 48.6094 242.273 49.5703 241.898 50.5547C241.523 51.4922 241.172 52.5469 240.844 53.7188C240.281 54.5625 239.812 55.3828 239.438 56.1797C239.062 56.9297 238.758 57.7969 238.523 58.7812C237.82 59.5781 237.305 60.4453 236.977 61.3828C236.695 62.3203 236.438 63.1172 236.203 63.7734L235.922 64.8281C235.594 65.1562 235.383 65.4141 235.289 65.6016C235.242 65.7891 235.125 66 234.938 66.2344C234.797 66.8438 234.609 67.4297 234.375 67.9922C234.281 68.2266 234.188 68.4844 234.094 68.7656C234 69 233.977 69.1875 234.023 69.3281C233.93 69.8438 233.789 70.2422 233.602 70.5234C233.602 70.8047 233.578 71.0859 233.531 71.3672C233.484 71.6484 233.438 71.9297 233.391 72.2109C233.297 72.5391 233.227 72.8438 233.18 73.125C233.133 73.3594 233.156 73.5938 233.25 73.8281C233.391 74.0156 233.531 74.2031 233.672 74.3906C233.812 74.5781 233.93 74.8125 234.023 75.0938C234.117 75.1875 234.234 75.2578 234.375 75.3047C234.516 75.3516 234.633 75.4219 234.727 75.5156C235.102 75.8438 235.453 76.0312 235.781 76.0781L236.484 76.9219C236.766 78.6094 236.508 79.9219 235.711 80.8594C234.867 81.9375 233.461 82.4766 231.492 82.4766L230.508 82.4062C230.18 82.0781 229.992 81.8672 229.945 81.7734C229.523 81.5859 229.172 81.4219 228.891 81.2812C228.609 81.1875 228.352 80.9766 228.117 80.6484C228.023 80.5547 227.906 80.5078 227.766 80.5078C227.625 80.4609 227.508 80.3906 227.414 80.2969C226.945 80.1562 226.57 79.9922 226.289 79.8047L225.516 79.3828C225.562 78.9141 225.586 78.5859 225.586 78.3984C225.211 77.8828 224.906 77.3203 224.672 76.7109C224.484 76.1016 224.32 75.4688 224.18 74.8125C224.039 74.2969 223.898 73.8281 223.758 73.4062C223.664 72.9844 223.5 72.6094 223.266 72.2812C223.172 69 223.477 66.2578 224.18 64.0547C224.883 61.8047 225.656 59.625 226.5 57.5156C226.969 56.3906 227.414 55.2422 227.836 54.0703C228.258 52.8984 228.633 51.7031 228.961 50.4844L229.734 49.7109C230.062 49.4297 230.273 49.2656 230.367 49.2188C230.367 48.6094 230.484 48.0234 230.719 47.4609C230.953 46.8516 231.211 46.2422 231.492 45.6328C231.68 45.2578 231.844 44.8828 231.984 44.5078C232.172 44.1328 232.289 43.8047 232.336 43.5234C232.008 43.5234 231.703 43.5469 231.422 43.5938C231.188 43.5938 230.93 43.6172 230.648 43.6641C230.039 43.8047 229.453 43.875 228.891 43.875C228.469 43.875 228.164 43.8516 227.977 43.8047C227.602 43.9922 227.25 44.1094 226.922 44.1562C226.594 44.1562 226.266 44.1562 225.938 44.1562H225.094H224.25C223.688 44.1562 223.242 44.2266 222.914 44.3672C222.258 44.3672 221.836 44.3672 221.648 44.3672C221.461 44.3672 221.25 44.3672 221.016 44.3672H220.172H219.328C218.953 44.3672 218.531 44.3438 218.062 44.2969C217.594 44.2031 217.102 44.0156 216.586 43.7344L216.094 43.1719C215.812 42.6562 215.555 42.375 215.32 42.3281L214.547 42.1172V41.3438ZM295.547 59.9062C295.5 60.4688 295.547 61.0078 295.688 61.5234C295.828 62.0391 295.992 62.5547 296.18 63.0703C296.414 63.5391 296.625 64.0312 296.812 64.5469C297 65.0625 297.141 65.5781 297.234 66.0938C297.328 66.75 297.328 67.4766 297.234 68.2734C297.141 69.0234 296.977 69.7734 296.742 70.5234C296.508 71.2266 296.203 71.8828 295.828 72.4922C295.453 73.0547 295.008 73.4766 294.492 73.7578C293.836 74.6016 293.039 75.2578 292.102 75.7266C291.164 76.1953 290.297 76.7578 289.5 77.4141C288.984 77.7422 288.398 77.9766 287.742 78.1172C287.133 78.2578 286.5 78.3984 285.844 78.5391C285.328 78.8203 284.719 79.125 284.016 79.4531C283.312 79.7344 282.586 80.0156 281.836 80.2969C281.086 80.5312 280.336 80.7188 279.586 80.8594C278.836 80.9531 278.18 80.9766 277.617 80.9297C276.211 81.4453 274.828 81.7734 273.469 81.9141C272.156 82.1016 270.609 82.0078 268.828 81.6328C267.141 81.8672 265.57 81.7969 264.117 81.4219C262.711 81.0469 261.445 80.4609 260.32 79.6641C259.242 78.8203 258.281 77.8359 257.438 76.7109C256.641 75.5391 255.984 74.3203 255.469 73.0547C255.094 70.3828 255.188 67.9688 255.75 65.8125C256.312 63.6094 257.109 61.5938 258.141 59.7656C259.219 57.8906 260.438 56.1797 261.797 54.6328C263.156 53.0391 264.469 51.4922 265.734 49.9922C266.016 50.0859 266.227 50.0859 266.367 49.9922C266.555 49.8516 266.719 49.6875 266.859 49.5C267 49.2656 267.141 49.0547 267.281 48.8672C267.469 48.6797 267.68 48.5625 267.914 48.5156C268.242 47.8125 268.711 47.2969 269.32 46.9688C269.977 46.5938 270.492 46.0781 270.867 45.4219C271.289 45.3281 271.641 45.1875 271.922 45C272.203 44.8125 272.461 44.6016 272.695 44.3672C272.977 44.1328 273.258 43.9219 273.539 43.7344C273.82 43.5 274.148 43.3359 274.523 43.2422V42.4688C275.367 42.0938 275.977 41.6719 276.352 41.2031C276.773 40.6875 277.266 40.0781 277.828 39.375C278.25 39.3281 278.578 39.3047 278.812 39.3047C279.094 39.3047 279.492 39.2578 280.008 39.1641C280.383 38.5078 280.711 38.0156 280.992 37.6875C281.32 37.3594 281.789 37.0078 282.398 36.6328C282.961 36.9141 283.57 37.1016 284.227 37.1953C284.93 37.2891 285.539 37.5938 286.055 38.1094C286.102 38.5781 286.242 38.9531 286.477 39.2344C286.711 39.4688 286.969 39.7031 287.25 39.9375C287.531 40.125 287.789 40.3359 288.023 40.5703C288.305 40.8047 288.492 41.1328 288.586 41.5547C288.773 41.6016 288.891 41.5781 288.938 41.4844C289.031 41.3906 289.172 41.3672 289.359 41.4141C289.5 42.0703 289.664 42.5156 289.852 42.75C290.039 42.9375 290.227 43.3359 290.414 43.9453C290.18 44.4141 289.992 44.9062 289.852 45.4219C289.758 45.8906 289.477 46.2422 289.008 46.4766C288.961 46.8047 289.055 46.9922 289.289 47.0391C289.523 47.0391 289.664 47.1562 289.711 47.3906C289.758 47.8125 289.688 48.1172 289.5 48.3047C290.625 50.1328 291.633 52.0781 292.523 54.1406C293.414 56.1562 294.422 58.0781 295.547 59.9062ZM286.758 66.5859C286.945 66.0703 287.18 65.6484 287.461 65.3203C287.789 64.9922 287.977 64.5 288.023 63.8438C287.789 63.4688 287.648 63.1875 287.602 63C287.555 62.7656 287.531 62.4141 287.531 61.9453C286.5 60.4922 285.609 58.9453 284.859 57.3047C284.109 55.6172 283.266 54.0469 282.328 52.5938C282.234 52.7812 282.07 52.9688 281.836 53.1562C281.602 53.3438 281.344 53.2969 281.062 53.0156C280.969 53.3906 280.805 53.6719 280.57 53.8594C280.336 54 280.078 54.0703 279.797 54.0703C279.516 54.0234 279.211 53.9531 278.883 53.8594C278.602 53.7188 278.344 53.5547 278.109 53.3672C276.75 54.4453 275.391 55.5 274.031 56.5312C272.672 57.5625 271.453 58.7578 270.375 60.1172C270.188 60.2109 270.07 60.2578 270.023 60.2578C269.977 60.2109 269.836 60.2344 269.602 60.3281C269.227 61.2188 268.758 62.0391 268.195 62.7891C267.68 63.4922 267.164 64.2188 266.648 64.9688C266.133 65.7188 265.688 66.5156 265.312 67.3594C264.938 68.2031 264.727 69.1875 264.68 70.3125C265.477 70.9688 266.414 71.3672 267.492 71.5078C268.57 71.6484 269.672 71.6719 270.797 71.5781C271.969 71.4844 273.094 71.3438 274.172 71.1562C275.297 70.9219 276.328 70.8047 277.266 70.8047C279.234 70.3359 280.922 69.7266 282.328 68.9766C283.734 68.1797 285.211 67.3828 286.758 66.5859ZM306.727 81.7734C305.367 81.4453 304.312 80.9062 303.562 80.1562C302.859 79.3594 302.32 78.4453 301.945 77.4141C301.617 76.3359 301.383 75.1641 301.242 73.8984C301.148 72.6328 301.031 71.3203 300.891 69.9609C301.078 69.3516 301.312 68.8359 301.594 68.4141C301.922 67.9922 302.062 67.4062 302.016 66.6562C302.531 65.1562 303 63.7031 303.422 62.2969C303.844 60.8906 304.125 59.4375 304.266 57.9375C304.547 57.5156 304.828 57.2344 305.109 57.0938C305.484 54.4219 305.531 51.6797 305.25 48.8672C304.969 46.0547 304.5 43.4531 303.844 41.0625C303.891 40.5469 303.961 40.1719 304.055 39.9375C304.148 39.6562 304.148 39.4219 304.055 39.2344C303.961 38.8125 304.102 38.6016 304.477 38.6016C304.852 38.6016 305.227 38.6016 305.602 38.6016C305.602 37.7578 305.438 36.9375 305.109 36.1406C304.828 35.2969 304.547 34.3359 304.266 33.2578C304.641 32.4141 304.898 31.5938 305.039 30.7969C305.18 30 305.438 29.2734 305.812 28.6172C307.312 29.0859 308.789 29.625 310.242 30.2344C311.695 30.8437 313.125 31.4531 314.531 32.0625C315.938 32.625 317.32 33.1875 318.68 33.75C320.039 34.2656 321.375 34.6875 322.688 35.0156C324.703 36.4688 326.766 37.9219 328.875 39.375C331.031 40.7812 332.977 42.3516 334.711 44.0859C336.492 45.7734 337.969 47.7188 339.141 49.9219C340.312 52.125 340.992 54.7266 341.18 57.7266C341.086 58.0078 341.016 58.2422 340.969 58.4297C340.922 58.6172 340.875 58.8047 340.828 58.9922C340.781 59.1797 340.758 59.3906 340.758 59.625C340.758 59.8594 340.758 60.1875 340.758 60.6094C339.07 63.5625 336.938 66.0469 334.359 68.0625C331.781 70.0781 328.969 71.8594 325.922 73.4062C322.875 74.9531 319.688 76.3828 316.359 77.6953C313.078 78.9609 309.867 80.3203 306.727 81.7734ZM313.617 41.9062C313.195 41.9062 312.891 42 312.703 42.1875C313.266 44.2969 313.688 46.2891 313.969 48.1641C314.25 50.0391 314.391 51.9141 314.391 53.7891C314.438 55.6641 314.344 57.5859 314.109 59.5547C313.875 61.5234 313.547 63.6562 313.125 65.9531C313.734 65.9062 314.273 65.7891 314.742 65.6016C315.211 65.4141 315.68 65.2031 316.148 64.9688C316.664 64.7344 317.18 64.5234 317.695 64.3359C318.258 64.1484 318.891 64.0312 319.594 63.9844C319.781 63.6094 320.016 63.3281 320.297 63.1406C320.625 62.9062 320.906 62.6719 321.141 62.4375C322.312 61.9688 323.484 61.4766 324.656 60.9609C325.828 60.4453 326.906 59.8594 327.891 59.2031C328.875 58.5469 329.766 57.7969 330.562 56.9531C331.359 56.1094 332.016 55.1016 332.531 53.9297C332.156 53.2266 331.688 52.6406 331.125 52.1719C330.609 51.6562 330.047 51.1641 329.438 50.6953C328.875 50.1797 328.312 49.6641 327.75 49.1484C327.234 48.5859 326.812 47.9531 326.484 47.25C325.734 47.1562 325.078 46.9688 324.516 46.6875C323.953 46.3594 323.414 46.0547 322.898 45.7734C322.383 45.4453 321.82 45.1406 321.211 44.8594C320.648 44.5781 319.969 44.4141 319.172 44.3672C317.953 43.7109 316.852 43.2656 315.867 43.0312C314.883 42.75 314.133 42.375 313.617 41.9062ZM383.227 59.9062C383.18 60.4688 383.227 61.0078 383.367 61.5234C383.508 62.0391 383.672 62.5547 383.859 63.0703C384.094 63.5391 384.305 64.0312 384.492 64.5469C384.68 65.0625 384.82 65.5781 384.914 66.0938C385.008 66.75 385.008 67.4766 384.914 68.2734C384.82 69.0234 384.656 69.7734 384.422 70.5234C384.188 71.2266 383.883 71.8828 383.508 72.4922C383.133 73.0547 382.688 73.4766 382.172 73.7578C381.516 74.6016 380.719 75.2578 379.781 75.7266C378.844 76.1953 377.977 76.7578 377.18 77.4141C376.664 77.7422 376.078 77.9766 375.422 78.1172C374.812 78.2578 374.18 78.3984 373.523 78.5391C373.008 78.8203 372.398 79.125 371.695 79.4531C370.992 79.7344 370.266 80.0156 369.516 80.2969C368.766 80.5312 368.016 80.7188 367.266 80.8594C366.516 80.9531 365.859 80.9766 365.297 80.9297C363.891 81.4453 362.508 81.7734 361.148 81.9141C359.836 82.1016 358.289 82.0078 356.508 81.6328C354.82 81.8672 353.25 81.7969 351.797 81.4219C350.391 81.0469 349.125 80.4609 348 79.6641C346.922 78.8203 345.961 77.8359 345.117 76.7109C344.32 75.5391 343.664 74.3203 343.148 73.0547C342.773 70.3828 342.867 67.9688 343.43 65.8125C343.992 63.6094 344.789 61.5938 345.82 59.7656C346.898 57.8906 348.117 56.1797 349.477 54.6328C350.836 53.0391 352.148 51.4922 353.414 49.9922C353.695 50.0859 353.906 50.0859 354.047 49.9922C354.234 49.8516 354.398 49.6875 354.539 49.5C354.68 49.2656 354.82 49.0547 354.961 48.8672C355.148 48.6797 355.359 48.5625 355.594 48.5156C355.922 47.8125 356.391 47.2969 357 46.9688C357.656 46.5938 358.172 46.0781 358.547 45.4219C358.969 45.3281 359.32 45.1875 359.602 45C359.883 44.8125 360.141 44.6016 360.375 44.3672C360.656 44.1328 360.938 43.9219 361.219 43.7344C361.5 43.5 361.828 43.3359 362.203 43.2422V42.4688C363.047 42.0938 363.656 41.6719 364.031 41.2031C364.453 40.6875 364.945 40.0781 365.508 39.375C365.93 39.3281 366.258 39.3047 366.492 39.3047C366.773 39.3047 367.172 39.2578 367.688 39.1641C368.062 38.5078 368.391 38.0156 368.672 37.6875C369 37.3594 369.469 37.0078 370.078 36.6328C370.641 36.9141 371.25 37.1016 371.906 37.1953C372.609 37.2891 373.219 37.5938 373.734 38.1094C373.781 38.5781 373.922 38.9531 374.156 39.2344C374.391 39.4688 374.648 39.7031 374.93 39.9375C375.211 40.125 375.469 40.3359 375.703 40.5703C375.984 40.8047 376.172 41.1328 376.266 41.5547C376.453 41.6016 376.57 41.5781 376.617 41.4844C376.711 41.3906 376.852 41.3672 377.039 41.4141C377.18 42.0703 377.344 42.5156 377.531 42.75C377.719 42.9375 377.906 43.3359 378.094 43.9453C377.859 44.4141 377.672 44.9062 377.531 45.4219C377.438 45.8906 377.156 46.2422 376.688 46.4766C376.641 46.8047 376.734 46.9922 376.969 47.0391C377.203 47.0391 377.344 47.1562 377.391 47.3906C377.438 47.8125 377.367 48.1172 377.18 48.3047C378.305 50.1328 379.312 52.0781 380.203 54.1406C381.094 56.1562 382.102 58.0781 383.227 59.9062ZM374.438 66.5859C374.625 66.0703 374.859 65.6484 375.141 65.3203C375.469 64.9922 375.656 64.5 375.703 63.8438C375.469 63.4688 375.328 63.1875 375.281 63C375.234 62.7656 375.211 62.4141 375.211 61.9453C374.18 60.4922 373.289 58.9453 372.539 57.3047C371.789 55.6172 370.945 54.0469 370.008 52.5938C369.914 52.7812 369.75 52.9688 369.516 53.1562C369.281 53.3438 369.023 53.2969 368.742 53.0156C368.648 53.3906 368.484 53.6719 368.25 53.8594C368.016 54 367.758 54.0703 367.477 54.0703C367.195 54.0234 366.891 53.9531 366.562 53.8594C366.281 53.7188 366.023 53.5547 365.789 53.3672C364.43 54.4453 363.07 55.5 361.711 56.5312C360.352 57.5625 359.133 58.7578 358.055 60.1172C357.867 60.2109 357.75 60.2578 357.703 60.2578C357.656 60.2109 357.516 60.2344 357.281 60.3281C356.906 61.2188 356.438 62.0391 355.875 62.7891C355.359 63.4922 354.844 64.2188 354.328 64.9688C353.812 65.7188 353.367 66.5156 352.992 67.3594C352.617 68.2031 352.406 69.1875 352.359 70.3125C353.156 70.9688 354.094 71.3672 355.172 71.5078C356.25 71.6484 357.352 71.6719 358.477 71.5781C359.648 71.4844 360.773 71.3438 361.852 71.1562C362.977 70.9219 364.008 70.8047 364.945 70.8047C366.914 70.3359 368.602 69.7266 370.008 68.9766C371.414 68.1797 372.891 67.3828 374.438 66.5859Z" fill="#5E8AFD"/>
</svg>
