<svg width="300" height="307" viewBox="0 0 300 307" fill="none" xmlns="http://www.w3.org/2000/svg">
<path d="M150 0C67.1371 0 0 68.5555 0 153.169C0 237.783 67.1371 306.338 150 306.338C232.863 306.338 300 237.783 300 153.169C300 68.5555 232.863 0 150 0ZM150 276.692C83.1653 276.692 29.0323 221.416 29.0323 153.169C29.0323 84.9223 83.1653 29.6456 150 29.6456C216.835 29.6456 270.968 84.9223 270.968 153.169C270.968 221.416 216.835 276.692 150 276.692ZM187.379 212.213L136.028 174.106C134.153 172.686 133.065 170.462 133.065 168.115V66.7026C133.065 62.6264 136.331 59.2912 140.323 59.2912H159.677C163.669 59.2912 166.935 62.6264 166.935 66.7026V154.219L207.339 184.235C210.605 186.644 211.27 191.276 208.911 194.611L197.54 210.607C195.181 213.881 190.645 214.622 187.379 212.213Z" fill="#FF8227"/>
</svg>
