<svg width="300" height="300" viewBox="0 0 300 300" fill="none" xmlns="http://www.w3.org/2000/svg">
<path d="M206.864 150L292.151 64.7131C302.616 54.2472 302.616 37.2784 292.151 26.804L273.196 7.84943C262.73 -2.61648 245.761 -2.61648 235.287 7.84943L150 93.1364L64.7131 7.84943C54.2472 -2.61648 37.2784 -2.61648 26.804 7.84943L7.84943 26.804C-2.61648 37.2699 -2.61648 54.2386 7.84943 64.7131L93.1364 150L7.84943 235.287C-2.61648 245.753 -2.61648 262.722 7.84943 273.196L26.804 292.151C37.2699 302.616 54.2472 302.616 64.7131 292.151L150 206.864L235.287 292.151C245.753 302.616 262.73 302.616 273.196 292.151L292.151 273.196C302.616 262.73 302.616 245.761 292.151 235.287L206.864 150Z" fill="#FF0000"/>
</svg>
